<?xml version="1.0" encoding="UTF-8" standalone="no"?>
<!-- Created with Inkscape (http://www.inkscape.org/) -->

<svg
   xmlns:dc="http://purl.org/dc/elements/1.1/"
   xmlns:cc="http://creativecommons.org/ns#"
   xmlns:rdf="http://www.w3.org/1999/02/22-rdf-syntax-ns#"
   xmlns:svg="http://www.w3.org/2000/svg"
   xmlns="http://www.w3.org/2000/svg"
   xmlns:sodipodi="http://sodipodi.sourceforge.net/DTD/sodipodi-0.dtd"
   xmlns:inkscape="http://www.inkscape.org/namespaces/inkscape"
   id="svg3486"
   version="1.1"
   inkscape:version="0.91 r13725"
   width="24.999998"
   height="31.11908"
   viewBox="0 0 24.999998 31.11908"
   sodipodi:docname="church.svg">
  <metadata
     id="metadata3492">
    <rdf:RDF>
      <cc:Work
         rdf:about="">
        <dc:format>image/svg+xml</dc:format>
        <dc:type
           rdf:resource="http://purl.org/dc/dcmitype/StillImage" />
        <dc:title></dc:title>
      </cc:Work>
    </rdf:RDF>
  </metadata>
  <defs
     id="defs3490" />
  <sodipodi:namedview
     pagecolor="#ffffff"
     bordercolor="#666666"
     borderopacity="1"
     objecttolerance="10"
     gridtolerance="10"
     guidetolerance="10"
     inkscape:pageopacity="0"
     inkscape:pageshadow="2"
     inkscape:window-width="1280"
     inkscape:window-height="756"
     id="namedview3488"
     showgrid="false"
     inkscape:zoom="1.0201488"
     inkscape:cx="80.943726"
     inkscape:cy="3.913254"
     inkscape:window-x="72"
     inkscape:window-y="0"
     inkscape:window-maximized="0"
     inkscape:current-layer="layer1"
     showguides="false"
     fit-margin-top="0"
     fit-margin-left="0"
     fit-margin-right="0"
     fit-margin-bottom="0" />
  <g
     inkscape:groupmode="layer"
     id="layer1"
     inkscape:label="Layer 1"
     style="display:inline"
     transform="translate(-332.71673,-589.38692)">
    <path
       style="opacity:1;fill:#c4b5b1;fill-opacity:1;stroke:#a59a7a;stroke-width:1.39966393;stroke-opacity:1"
       d=""
       id="path4599"
       inkscape:connector-curvature="0" />
    <path
       style="opacity:1;fill:#c4b5b1;fill-opacity:1;stroke:#a59a7a;stroke-width:1.39966393;stroke-opacity:1"
       d=""
       id="path4605"
       inkscape:connector-curvature="0" />
    <path
       style="opacity:1;fill:#c4b5b1;fill-opacity:1;stroke:#a59a7a;stroke-width:1.39966393;stroke-opacity:1"
       d=""
       id="path4607"
       inkscape:connector-curvature="0" />
    <path
       style="opacity:1;fill:#c4b5b1;fill-opacity:1;stroke:#a59a7a;stroke-width:0.34991598;stroke-opacity:1"
       d=""
       id="path4766"
       inkscape:connector-curvature="0" />
    <path
       style="opacity:1;fill:#c4b5b1;fill-opacity:1;stroke:#a59a7a;stroke-width:0.17495799;stroke-opacity:1"
       d=""
       id="path4863"
       inkscape:connector-curvature="0" />
    <g
       id="g4911"
       transform="matrix(0.06307375,0,0,0.06307375,311.73104,581.36839)"
       inkscape:export-xdpi="90"
       inkscape:export-ydpi="90">
      <path
         sodipodi:nodetypes="ccccc"
         inkscape:connector-curvature="0"
         id="path3503"
         d="m 516.30303,463.54545 -0.33333,70.66667 194,0 1.33333,-11.66667 z"
         style="fill:#a59a7a;fill-opacity:1;fill-rule:evenodd;stroke:#a59a7a;stroke-width:1px;stroke-linecap:butt;stroke-linejoin:miter;stroke-opacity:1" />
      <path
         inkscape:connector-curvature="0"
         id="path3501"
         d="m 515.9697,533.21212 0,-74.33333 -62,-72.33334 -2,-9 -5.66667,-11.66666 28,10 0.66667,5.33333 9.66667,3.33333 1.33333,-50.33333 -54.33333,-26.33333 -10.66667,225 40.33333,3.33333 z"
         style="fill:#a59a7a;fill-opacity:1;fill-rule:evenodd;stroke:#a59a7a;stroke-width:1px;stroke-linecap:butt;stroke-linejoin:miter;stroke-opacity:1" />
      <path
         inkscape:connector-curvature="0"
         id="path3509"
         d="m 447.63637,367.21212 7.33333,19.66667 62.33333,75.66666 194.33334,60 0.33333,-7.66666 -191.66667,-62 z"
         style="fill:#fbfafe;fill-opacity:1;fill-rule:evenodd;stroke:#fbfafe;stroke-width:1px;stroke-linecap:butt;stroke-linejoin:miter;stroke-opacity:1" />
      <path
         inkscape:connector-curvature="0"
         id="path3515"
         d="m 431.9697,307.21212 55.66667,26.33333 1.66666,-1 -2.66666,-3.33333 9.33333,-3 -64.33333,-31 -70,26.33333 12.33333,5.33334 z"
         style="fill:#fbfafe;fill-opacity:1;fill-rule:evenodd;stroke:#fbfafe;stroke-width:1px;stroke-linecap:butt;stroke-linejoin:miter;stroke-opacity:1" />
      <path
         sodipodi:nodetypes="ccccccccccccccc"
         inkscape:connector-curvature="0"
         id="path3517"
         d="m 384.30303,312.54545 48.33334,-18.66666 34.66666,17.1442 2,-45.47754 4.33334,-15 -0.33334,-3.33333 -21.66666,-11.66667 -30.33334,-1.33333 -3.66666,0 -26.33334,12 -0.66666,15.66667 5,3.33333 -4.33334,41 -7,4 z"
         style="fill:#fbfafe;fill-opacity:1;fill-rule:evenodd;stroke:#fbfafe;stroke-width:1px;stroke-linecap:butt;stroke-linejoin:miter;stroke-opacity:1" />
      <path
         inkscape:connector-curvature="0"
         id="path3519"
         d="m 391.63637,245.87879 25.66666,-12.33334 3.33334,-4 17,-91.33333 -2,-1.33333 -32,97.66666 0,2.66667 z"
         style="fill:#c4b5b1;fill-opacity:1;fill-rule:evenodd;stroke:#c4b5b1;stroke-width:1px;stroke-linecap:butt;stroke-linejoin:miter;stroke-opacity:1" />
      <path
         inkscape:connector-curvature="0"
         id="path3521"
         d="m 417.9697,234.21212 34,1 22.33333,12.66667 0,-2 -26.66666,-15.33334 -8.33334,-95.66666 -18,95.66666 z"
         style="fill:#c4b5b1;fill-opacity:1;fill-rule:evenodd;stroke:#c4b5b1;stroke-width:1px;stroke-linecap:butt;stroke-linejoin:miter;stroke-opacity:1" />
      <path
         inkscape:connector-curvature="0"
         id="path3523"
         d="m 466.30303,240.21212 -3,-4.66667 -21.66666,-106.99999 -2,0.33333 8,101.66666 z"
         style="fill:#c4b5b1;fill-opacity:1;fill-rule:evenodd;stroke:#c4b5b1;stroke-width:1px;stroke-linecap:butt;stroke-linejoin:miter;stroke-opacity:1" />
      <path
         inkscape:connector-curvature="0"
         id="path3499"
         d="m 485.63637,362.87879 155,63.33333 85.33333,94 -205.33333,-67.66667 -71.33334,-84.66666 24.66667,9 0,4.66666 10.66667,3.33334 z"
         style="fill:#4d4d4d;fill-rule:evenodd;stroke:#000000;stroke-width:1px;stroke-linecap:butt;stroke-linejoin:miter;stroke-opacity:1" />
      <path
         inkscape:connector-curvature="0"
         id="path3544"
         d="m 344.56619,510.82616 2.33334,-26.33334 26,-42.66666 0,67.33333 z"
         style="fill:#948b6c;fill-opacity:1;fill-rule:evenodd;stroke:#948b6c;stroke-width:1px;stroke-linecap:butt;stroke-linejoin:miter;stroke-opacity:1" />
      <path
         inkscape:connector-curvature="0"
         id="path3546"
         d="m 335.56087,481.63128 37.21461,-54.58603 0,20.67652 -27.56638,40.52601 -4.13495,-4.13531 z"
         style="fill:#fefdff;fill-opacity:1;fill-rule:evenodd;stroke:#fefdff;stroke-width:1.30764341px;stroke-linecap:butt;stroke-linejoin:miter;stroke-opacity:1" />
      <g
         transform="translate(-253.0303,71.212117)"
         id="g4357">
        <path
           style="opacity:0.76000001;fill:#b49d6f;fill-opacity:1;fill-rule:evenodd;stroke:#b59f75;stroke-width:1px;stroke-linecap:butt;stroke-linejoin:miter;stroke-opacity:1"
           d="m 694.60442,249.57496 0,7.65805 2.67309,-7.65805 z"
           id="path3596"
           inkscape:connector-curvature="0" />
        <path
           inkscape:connector-curvature="0"
           id="path3598"
           d="m 698.57794,251.3811 0,7.65805 2.67309,-7.65805 z"
           style="opacity:0.76000001;fill:#b49d6f;fill-opacity:1;fill-rule:evenodd;stroke:#b59f75;stroke-width:1px;stroke-linecap:butt;stroke-linejoin:miter;stroke-opacity:1" />
        <path
           style="opacity:0.76000001;fill:#b49d6f;fill-opacity:1;fill-rule:evenodd;stroke:#b59f75;stroke-width:1px;stroke-linecap:butt;stroke-linejoin:miter;stroke-opacity:1"
           d="m 702.47921,252.82602 0,7.65805 2.67309,-7.65805 z"
           id="path3600"
           inkscape:connector-curvature="0" />
        <path
           inkscape:connector-curvature="0"
           id="path3602"
           d="m 706.16375,254.48767 0,7.65805 2.67309,-7.65805 z"
           style="opacity:0.76000001;fill:#b49d6f;fill-opacity:1;fill-rule:evenodd;stroke:#b59f75;stroke-width:1px;stroke-linecap:butt;stroke-linejoin:miter;stroke-opacity:1" />
        <path
           style="opacity:0.76000001;fill:#b49d6f;fill-opacity:1;fill-rule:evenodd;stroke:#b59f75;stroke-width:1px;stroke-linecap:butt;stroke-linejoin:miter;stroke-opacity:1"
           d="m 709.77604,256.14932 0,7.65805 2.67309,-7.65805 z"
           id="path3604"
           inkscape:connector-curvature="0" />
        <path
           inkscape:connector-curvature="0"
           id="path3606"
           d="m 713.24384,257.81097 0,7.65805 2.67309,-7.65805 z"
           style="opacity:0.76000001;fill:#b49d6f;fill-opacity:1;fill-rule:evenodd;stroke:#b59f75;stroke-width:1px;stroke-linecap:butt;stroke-linejoin:miter;stroke-opacity:1" />
        <path
           style="opacity:0.76000001;fill:#b49d6f;fill-opacity:1;fill-rule:evenodd;stroke:#b59f75;stroke-width:1px;stroke-linecap:butt;stroke-linejoin:miter;stroke-opacity:1"
           d="m 716.92838,259.18364 0,7.65805 2.67309,-7.65805 z"
           id="path3608"
           inkscape:connector-curvature="0" />
        <path
           inkscape:connector-curvature="0"
           id="path3610"
           d="m 719.81821,260.7008 0,7.65805 2.67309,-7.65805 z"
           style="opacity:0.76000001;fill:#b49d6f;fill-opacity:1;fill-rule:evenodd;stroke:#b59f75;stroke-width:1px;stroke-linecap:butt;stroke-linejoin:miter;stroke-opacity:1" />
        <path
           style="opacity:0.76000001;fill:#b49d6f;fill-opacity:1;fill-rule:evenodd;stroke:#b59f75;stroke-width:1px;stroke-linecap:butt;stroke-linejoin:miter;stroke-opacity:1"
           d="m 723.64724,262.4347 0,7.65805 2.67309,-7.65805 z"
           id="path3612"
           inkscape:connector-curvature="0" />
        <path
           inkscape:connector-curvature="0"
           id="path3614"
           d="m 726.97055,264.02411 0,7.65805 2.67309,-7.65805 z"
           style="opacity:0.76000001;fill:#b49d6f;fill-opacity:1;fill-rule:evenodd;stroke:#b59f75;stroke-width:1px;stroke-linecap:butt;stroke-linejoin:miter;stroke-opacity:1" />
      </g>
      <path
         inkscape:connector-curvature="0"
         id="path3552"
         d="m 475.81303,378.99289 2.72525,-41.63763 -3.40656,4.36758 -2.04394,34.35833 z"
         style="fill:#bdac78;fill-opacity:1;fill-rule:evenodd;stroke:#bdac78;stroke-width:0.94483256px;stroke-linecap:butt;stroke-linejoin:miter;stroke-opacity:1" />
      <g
         transform="matrix(-1,0,0,-1,1055.8059,646.22074)"
         id="g3483">
        <path
           style="fill:#444653;fill-opacity:1;fill-rule:evenodd;stroke:#636975;stroke-width:1px;stroke-linecap:butt;stroke-linejoin:miter;stroke-opacity:1"
           d="m 644.18103,295.58621 14.87069,-20.25862 -3.66379,24.35344 -7.97414,-19.61206 16.59483,6.68103 0.64655,0.43103 z"
           id="path3440"
           inkscape:connector-curvature="0" />
        <path
           style="fill:#444653;fill-opacity:1;fill-rule:evenodd;stroke:#444653;stroke-width:1px;stroke-linecap:butt;stroke-linejoin:miter;stroke-opacity:1"
           d="m 653.84871,283.19575 3.31785,1.36032 -0.82947,5.54081 -3.64963,1.52621 -1.82482,-4.3132 z"
           id="path3481"
           inkscape:connector-curvature="0" />
      </g>
      <rect
         y="509.99451"
         x="350.99451"
         height="110.011"
         width="311.01099"
         id="rect3741"
         style="opacity:1;fill:#c4b5b1;fill-opacity:1;stroke:#a59a7a;stroke-opacity:1" />
      <path
         inkscape:connector-curvature="0"
         id="path4543"
         d="m 345.34417,499.38876 c 0.3988,-5.3625 1.13367,-10.51979 1.63304,-11.46064 2.46806,-4.64998 24.2057,-35.78936 24.98367,-35.78936 0.5071,0 0.89605,12.37088 0.89605,28.5 l 0,28.5 -14.11892,0 -14.11892,0 0.72508,-9.75 z"
         style="opacity:1;fill:#a59a7a;fill-opacity:1;stroke:#a59a7a;stroke-opacity:1" />
      <rect
         ry="0"
         y="532"
         x="653"
         height="88"
         width="50"
         id="rect4550"
         style="opacity:1;fill:#a59a7a;fill-opacity:1;stroke:#a59a7a;stroke-opacity:1" />
      <rect
         transform="matrix(0.74027368,-0.67230565,0.74027368,0.67230565,0,0)"
         ry="0"
         y="613.25757"
         x="-147.55899"
         height="8.1075411"
         width="9.9606504"
         id="rect4571"
         style="opacity:1;fill:#a59a7a;fill-opacity:1;stroke:#a59a7a;stroke-width:1.31037283;stroke-opacity:1" />
      <rect
         transform="matrix(0.9961947,0.08715574,-0.08715574,0.9961947,0,0)"
         y="472.51773"
         x="387.67758"
         height="6.8942909"
         width="2.4748738"
         id="rect4573"
         style="opacity:1;fill:#a59a7a;fill-opacity:1;stroke:#a59a7a;stroke-opacity:1" />
      <rect
         transform="matrix(0.7510848,0.66020574,-0.7510848,0.66020574,0,0)"
         y="-67.212074"
         x="867.98419"
         height="7.8929229"
         width="9.4205847"
         id="rect4575"
         style="opacity:1;fill:#a59a7a;fill-opacity:1;stroke:#a59a7a;stroke-width:1.44029391;stroke-opacity:1" />
      <path
         inkscape:connector-curvature="0"
         id="path4631"
         d="m 373.12137,448.32307 0.49486,-120.74485 56.41357,-18.80452 0.49486,0.49485"
         style="fill:none;fill-rule:evenodd;stroke:#c4b5b1;stroke-width:1px;stroke-linecap:butt;stroke-linejoin:miter;stroke-opacity:1" />
      <path
         inkscape:connector-curvature="0"
         id="path4657"
         d="m 373.12137,448.32307 0.49486,61.36213 48.49588,0.49486 9.40226,-201.90122 0,0"
         style="fill:none;fill-rule:evenodd;stroke:#c4b5b1;stroke-width:1px;stroke-linecap:butt;stroke-linejoin:miter;stroke-opacity:1" />
      <path
         inkscape:connector-curvature="0"
         id="path4659"
         d="m 373.98179,486.21654 c -0.18785,-42.83335 0.21991,-157.52639 0.56122,-157.86051 0.33552,-0.32846 58.32321,-18.91965 59.01079,-18.91922 0.20925,1.4e-4 0.26613,0.95598 0.12637,2.1241 -0.28495,2.38195 -1.26324,21.59458 -4.67564,91.82538 -3.08306,63.45263 -4.85786,98.24927 -5.26977,103.31917 l -0.33497,4.12277 -24.65504,0 -24.65503,0 -0.10793,-24.61169 z m 27.18688,-117.77682 2.62421,-3.4636 3.62831,1.43633 c 1.99559,0.78998 3.62833,1.23253 3.62833,0.98343 0,-0.24907 -0.4924,-1.64181 -1.09421,-3.09496 -0.6018,-1.45314 -1.28772,-3.12018 -1.52425,-3.7045 -0.34852,-0.86101 0.24837,-1.94768 3.14852,-5.73206 1.9682,-2.56831 3.50086,-4.74424 3.40587,-4.83541 -0.095,-0.0912 -2.23715,0.63336 -4.76038,1.61009 -2.52323,0.97674 -4.74349,1.60685 -4.93391,1.40028 -0.19042,-0.20659 -1.00554,-2.01746 -1.81135,-4.02415 -0.80582,-2.00667 -1.62324,-3.74231 -1.81648,-3.85697 -0.19323,-0.11464 -0.63372,1.75207 -0.97887,4.14825 -0.96766,6.7181 -0.71188,6.31702 -5.16445,8.09795 -2.19533,0.87807 -4.17781,1.7662 -4.40549,1.97361 -0.22768,0.2074 1.36925,1.1235 3.54874,2.03574 3.40732,1.42617 3.9249,1.80473 3.69284,2.70093 -0.70253,2.71301 -0.96207,7.78862 -0.39828,7.78862 0.32266,0 1.76753,-1.55861 3.21085,-3.46358 z"
         style="opacity:1;fill:#c4b5b1;fill-opacity:1;stroke:#c4b5b1;stroke-width:0.51003891;stroke-opacity:1" />
      <path
         inkscape:connector-curvature="0"
         id="path4661"
         d="m 372.13166,510.67492 0,-61.36214 0,0"
         style="fill:#c4b5b1;fill-opacity:1;fill-rule:evenodd;stroke:#c4b5b1;stroke-width:1px;stroke-linecap:butt;stroke-linejoin:miter;stroke-opacity:1" />
      <path
         inkscape:connector-curvature="0"
         id="path4663"
         d="m 373.12137,509.6852 -0.98971,-58.88785 0.49485,1.48457"
         style="fill:#c4b5b1;fill-opacity:1;fill-rule:evenodd;stroke:#c4b5b1;stroke-width:1px;stroke-linecap:butt;stroke-linejoin:miter;stroke-opacity:1" />
      <path
         inkscape:connector-curvature="0"
         id="path4685"
         d="m 447.34976,366.67184 73.23868,85.61008 206.84978,68.78497 -86.10494,-95.50719 -155.87961,-62.35185 -0.98972,22.26852 -10.88683,-3.46399 0,-2.47428 -2.47428,-4.94856 z"
         style="fill:#c4b5b1;fill-opacity:1;fill-rule:evenodd;stroke:#a59a7a;stroke-width:1px;stroke-linecap:butt;stroke-linejoin:miter;stroke-opacity:1" />
      <path
         inkscape:connector-curvature="0"
         id="path4691"
         d="m 448.09204,366.91927 53.9393,62.35185 -0.49486,-0.74229"
         style="fill:none;fill-rule:evenodd;stroke:#c4b5b1;stroke-width:1px;stroke-linecap:butt;stroke-linejoin:miter;stroke-opacity:1" />
      <path
         inkscape:connector-curvature="0"
         id="path4705"
         d="M 475.80398,398.09519 450.3189,368.15641"
         style="fill:none;fill-rule:evenodd;stroke:#c4b5b1;stroke-width:1px;stroke-linecap:butt;stroke-linejoin:miter;stroke-opacity:1" />
      <path
         inkscape:connector-curvature="0"
         id="path4707"
         d="m 450.07147,368.15641 20.78395,7.91769"
         style="fill:none;fill-rule:evenodd;stroke:#c4b5b1;stroke-width:1px;stroke-linecap:butt;stroke-linejoin:miter;stroke-opacity:1" />
      <path
         inkscape:connector-curvature="0"
         id="path4709"
         d="m 449.70033,368.03269 20.90766,7.17542 0,0"
         style="fill:none;fill-rule:evenodd;stroke:#c4b5b1;stroke-width:1px;stroke-linecap:butt;stroke-linejoin:miter;stroke-opacity:1" />
      <path
         inkscape:connector-curvature="0"
         id="path4724"
         d="m 472.2991,375.70044 2.05576,3.36794 -0.0875,2.40568 9.71017,3.01802"
         style="fill:none;fill-rule:evenodd;stroke:#c4b5b1;stroke-width:1px;stroke-linecap:butt;stroke-linejoin:miter;stroke-opacity:1" />
      <path
         inkscape:connector-curvature="0"
         id="path4730"
         d="m 471.55553,375.70044 1.04975,-0.69983"
         style="fill:none;fill-rule:evenodd;stroke:#a59a7a;stroke-width:1px;stroke-linecap:butt;stroke-linejoin:miter;stroke-opacity:1" />
      <path
         inkscape:connector-curvature="0"
         id="path4744"
         d="m 472.25833,375.61227 2.27314,3.57806 0,0 c 0,0 0,0 0,0"
         style="fill:none;fill-rule:evenodd;stroke:#c4b5b1;stroke-width:1.06220424px;stroke-linecap:butt;stroke-linejoin:miter;stroke-opacity:1" />
      <path
         inkscape:connector-curvature="0"
         id="path4750"
         d="m 485.08742,362.47814 52.32196,21.49989 0,0"
         style="fill:none;fill-rule:evenodd;stroke:#a59a7a;stroke-width:1.02061534px;stroke-linecap:butt;stroke-linejoin:miter;stroke-opacity:1" />
      <path
         inkscape:connector-curvature="0"
         id="path4752"
         d="m 680.8978,513.46679 c -16.64726,-5.16578 -60.30004,-18.65103 -97.00618,-29.96721 l -66.73845,-20.57487 -31.26649,-37.96588 -31.26649,-37.96589 -3.23772,-8.68928 c -1.78074,-4.77911 -3.14136,-8.78564 -3.02358,-8.90342 0.11777,-0.11777 0.50596,0.092 0.86264,0.46626 1.01261,1.06239 56.05066,65.48991 63.96513,74.87755 l 7.07189,8.38823 26.52004,8.71759 c 33.84014,11.12382 165.32395,54.72628 165.43263,54.86051 0.0451,0.0558 0.005,1.47919 -0.0883,3.16316 -0.10946,1.96701 -0.31108,3.04815 -0.5639,3.02368 -0.21643,-0.021 -14.01399,-4.26464 -30.66124,-9.43043 z"
         style="opacity:1;fill:#c4b5b1;fill-opacity:1;stroke:#a59a7a;stroke-width:0.34991598;stroke-opacity:1" />
      <path
         inkscape:connector-curvature="0"
         id="path4754"
         d="m 350.57711,529.14028 0,-11.64074 -3.33523,-2.96825 -3.33522,-2.96826 0.18819,-2.09949 c 0.1035,-1.15473 0.42395,-4.85509 0.7121,-8.22303 0.28815,-3.36794 0.70868,-7.68764 0.9345,-9.59932 l 0.41058,-3.47579 2.78882,-4.22236 c 4.69008,-7.10092 18.89553,-27.65941 19.19768,-27.78337 0.15636,-0.0642 0.28429,-0.32287 0.28429,-0.57492 0,-0.25205 0.25873,-0.55756 0.57496,-0.67891 0.31623,-0.12135 0.49441,-0.30118 0.39596,-0.39963 -0.18996,-0.18996 1.61292,-2.25394 1.9688,-2.25394 0.11524,0 0.20953,13.1481 0.20953,29.21799 0,24.97439 0.072,29.21798 0.49571,29.21798 0.27264,0 0.55523,-0.17855 0.62798,-0.39678 0.0867,-0.26007 0.32925,-0.19979 0.70399,0.17496 0.5183,0.51829 2.89253,0.57174 25.40045,0.57174 l 24.82871,0 0.21292,-1.83706 c 0.45436,-3.92017 1.53571,-24.97691 6.85991,-133.58043 2.50991,-51.19736 3.09129,-62.3808 3.33401,-64.13387 0.10082,-0.72817 0.005,-1.65745 -0.21333,-2.06507 -0.32972,-0.6161 -0.30739,-0.70688 0.13241,-0.53811 0.96883,0.37177 30.71436,14.54358 41.54228,19.79219 l 10.67244,5.17324 0,3.82741 c 0,2.10507 -0.12265,8.48746 -0.27255,14.18309 l -0.27256,10.35568 11.11995,4.58059 c 13.86448,5.71113 27.09114,11.13525 35.14932,14.41439 6.17761,2.51387 7.65267,3.26036 7.24601,3.66701 -0.11877,0.11878 -12.00318,-4.51666 -26.4098,-10.30096 -14.40662,-5.78431 -26.39441,-10.43996 -26.63954,-10.34589 -0.29906,0.11475 -0.4457,0.93532 -0.4457,2.4939 0,1.92102 -0.0908,2.28803 -0.52488,2.12146 -0.31651,-0.12146 -0.52487,-0.002 -0.52487,0.3015 0,0.32482 0.2057,0.42397 0.58088,0.28 0.51752,-0.19859 0.55569,0.0182 0.34992,1.98685 -0.12703,1.21537 -0.23097,2.83335 -0.23097,3.59553 0,1.08803 -0.11277,1.34249 -0.52487,1.18435 -0.37808,-0.14508 -0.52488,0.0371 -0.52488,0.65142 0,0.62762 0.14365,0.7977 0.54398,0.64408 0.47972,-0.18409 0.5155,0.2202 0.30286,3.42266 -0.13261,1.99728 -0.31155,3.70989 -0.39763,3.80582 -0.0861,0.0959 -0.34046,-0.0751 -0.56529,-0.38009 -0.22484,-0.30497 -2.41643,-1.16774 -4.87022,-1.91726 -4.31318,-1.31748 -4.46143,-1.39496 -4.46143,-2.33176 0,-1.04283 0.31147,-1.21739 0.97977,-0.5491 0.28555,0.28556 0.4199,0.29641 0.4199,0.0339 0,-0.21227 0.63052,-9.95326 1.40117,-21.64663 0.77064,-11.69337 1.34457,-21.31727 1.2754,-21.38644 -0.0692,-0.0692 -1.03058,1.00198 -2.13645,2.38035 -1.95594,2.43789 -2.01474,2.57385 -2.15983,4.99393 -0.082,1.36829 -0.53342,8.93309 -1.0031,16.81066 -0.93563,15.69272 -1.04881,16.29385 -2.72701,14.48304 -0.46301,-0.49959 -1.88582,-1.24057 -3.24821,-1.69163 -9.03572,-2.99152 -18.48719,-6.32616 -18.89893,-6.66788 -0.37978,-0.31518 -0.5359,-0.2803 -0.70381,0.15724 -0.11867,0.30925 -0.35672,0.47515 -0.52901,0.36867 -0.45985,-0.2842 -0.3875,0.17559 0.32131,2.04191 0.3487,0.91814 0.73156,1.57178 0.8508,1.45253 0.11924,-0.11924 0.12394,0.13832 0.0104,0.57236 -0.13136,0.5023 -0.0735,0.70705 0.15916,0.56325 0.20104,-0.12425 0.3585,-0.0308 0.34991,0.20772 -0.0395,1.0963 0.1213,1.68316 0.41191,1.50355 0.17451,-0.10785 0.22844,0.14367 0.11984,0.55894 -0.13429,0.51355 -0.0692,0.67576 0.20359,0.50718 0.25999,-0.16068 0.32774,-0.0569 0.19264,0.2952 -0.11462,0.29868 -0.039,0.54305 0.16798,0.54305 0.20701,0 0.28574,0.23619 0.17496,0.52487 -0.11078,0.28868 -0.0321,0.52488 0.17496,0.52488 0.20728,0 0.27598,0.26159 0.15293,0.58227 -0.16329,0.42552 -0.0972,0.50427 0.2454,0.29252 0.34262,-0.21176 0.40869,-0.133 0.2454,0.29251 -0.12288,0.32026 -0.0758,0.58228 0.10452,0.58228 0.18038,0 0.23732,0.23619 0.12654,0.52487 -0.11078,0.28868 -0.032,0.52488 0.17496,0.52488 0.207,0 0.28573,0.23619 0.17496,0.52487 -0.11078,0.28868 -0.0178,0.52488 0.20659,0.52488 0.2244,0 0.31068,0.15746 0.19174,0.34991 -0.11894,0.19246 -0.0545,0.34992 0.14333,0.34992 0.19777,0 0.26895,0.23619 0.15817,0.52487 -0.11078,0.28868 -0.0321,0.52488 0.17496,0.52488 0.207,0 0.28573,0.23619 0.17496,0.52487 -0.11078,0.28868 -0.0178,0.52487 0.20659,0.52487 0.2244,0 0.31068,0.15747 0.19174,0.34992 -0.11894,0.19245 -0.0544,0.34992 0.14332,0.34992 0.19778,0 0.26895,0.23619 0.15818,0.52487 -0.11078,0.28868 -0.0321,0.52487 0.17496,0.52487 0.207,0 0.28573,0.2362 0.17495,0.52488 -0.11078,0.28868 -0.0178,0.52487 0.20659,0.52487 0.2244,0 0.31069,0.15746 0.19175,0.34992 -0.11895,0.19245 -0.0495,0.34991 0.1543,0.34991 0.20382,0 0.33121,0.1537 0.28309,0.34156 -0.0481,0.18785 0.31361,0.6996 0.80384,1.13723 0.49022,0.43762 0.64768,0.66026 0.34991,0.49475 -0.29777,-0.1655 0.16719,0.37205 1.03323,1.19457 0.86604,0.82251 1.25969,1.27761 0.87479,1.01133 -0.95205,-0.65863 0.47718,1.08701 2.42653,2.9637 0.7824,0.75324 1.10762,1.16894 0.72271,0.92379 -0.38491,-0.24515 0.009,0.22723 0.87479,1.04975 0.86604,0.82251 1.2597,1.27761 0.87479,1.01133 -0.95205,-0.65863 0.47719,1.08701 2.42654,2.9637 0.78239,0.75324 1.10761,1.16894 0.7227,0.92379 -0.3849,-0.24515 0.009,0.22723 0.87479,1.04975 0.86605,0.82251 1.2597,1.29407 0.87479,1.04791 -0.3849,-0.24616 -0.07,0.14464 0.69984,0.86844 0.76981,0.72381 1.08474,1.11829 0.69983,0.87663 -0.38491,-0.24166 0.009,0.23358 0.87479,1.0561 0.86604,0.82251 1.2597,1.2949 0.87479,1.04974 -0.38491,-0.24515 0.009,0.22724 0.87479,1.04975 0.86604,0.82252 1.2597,1.27762 0.87479,1.01134 -0.95205,-0.65863 0.47719,1.087 2.42653,2.96369 0.7824,0.75324 1.10762,1.16895 0.72271,0.9238 -0.38491,-0.24516 0.009,0.22723 0.87479,1.04974 0.86604,0.82252 1.2597,1.27762 0.87479,1.01134 -0.95205,-0.65863 0.47719,1.087 2.42654,2.9637 0.78239,0.75323 1.10761,1.16894 0.72271,0.92379 -0.38491,-0.24516 0.009,0.22723 0.87479,1.04975 0.86604,0.82251 1.25969,1.29407 0.87479,1.04791 -0.38491,-0.24616 -0.07,0.14463 0.69983,0.86844 0.76981,0.7238 1.08474,1.11829 0.69983,0.87663 -0.38491,-0.24167 0.009,0.23358 0.87479,1.05609 0.86604,0.82251 1.2597,1.2949 0.87479,1.04975 -0.38491,-0.24515 0.009,0.22723 0.87479,1.04975 0.86604,0.82251 1.2597,1.29407 0.87479,1.04791 -0.38491,-0.24616 -0.07,0.14464 0.69983,0.86844 0.76982,0.72381 1.08474,1.11829 0.69983,0.87663 -0.3849,-0.24166 0.009,0.23358 0.87479,1.05609 0.86605,0.82252 1.2597,1.2949 0.87479,1.04975 -0.3849,-0.24515 0.009,0.22723 0.87479,1.04975 0.86605,0.82251 1.2597,1.29407 0.87479,1.04791 -0.3849,-0.24616 -0.07,0.14464 0.69984,0.86844 0.76981,0.72381 1.08473,1.11829 0.69983,0.87663 -0.38491,-0.24166 0.009,0.23358 0.87479,1.0561 0.86604,0.82251 1.25969,1.29489 0.87479,1.04974 -0.38491,-0.24515 0.009,0.22724 0.87479,1.04975 0.86604,0.82251 1.25969,1.29407 0.87479,1.04791 -0.38491,-0.24616 -0.07,0.14464 0.69983,0.86844 0.76981,0.72381 1.08474,1.11829 0.69983,0.87663 -0.38491,-0.24166 0.009,0.23358 0.87479,1.0561 0.86604,0.82251 1.2597,1.2949 0.87479,1.04974 -0.38491,-0.24515 0.009,0.22724 0.87479,1.04975 0.86604,0.82252 1.2597,1.29408 0.87479,1.04791 -0.38491,-0.24616 -0.07,0.14464 0.69983,0.86845 0.76982,0.7238 1.08474,1.11828 0.69983,0.87662 -0.3849,-0.24166 0.009,0.23358 0.87479,1.0561 0.86605,0.82251 1.2597,1.2949 0.87479,1.04975 -0.3849,-0.24516 0.009,0.22723 0.87479,1.04974 0.86605,0.82252 1.2597,1.29408 0.87479,1.04792 -0.3849,-0.24616 -0.07,0.13742 0.69984,0.85241 0.76981,0.71499 1.16347,1.19411 0.87479,1.06471 -0.28868,-0.12941 0.10497,0.35019 0.87479,1.06577 0.76981,0.71558 1.08474,1.10333 0.69983,0.86167 -0.38491,-0.24166 0.009,0.23358 0.87479,1.0561 0.86604,0.82251 1.2597,1.29407 0.87479,1.04791 -0.38491,-0.24616 -0.07,0.13742 0.69983,0.85241 0.76982,0.71499 1.16347,1.19411 0.87479,1.06471 -0.28868,-0.12941 0.10498,0.3502 0.87479,1.06577 0.76982,0.71558 1.08474,1.10011 0.69983,0.85451 -0.38491,-0.2456 -0.14871,0.0795 0.52488,0.7224 0.67358,0.64291 1.17817,1.3732 1.12129,1.62286 -0.12406,0.54452 1.578,1.25633 2.45544,1.02687 0.34277,-0.0896 0.54729,-0.0401 0.45447,0.11008 -0.23344,0.37771 3.92781,1.5076 4.42368,1.20114 0.22992,-0.1421 0.30625,-0.0944 0.17881,0.11182 -0.27313,0.44195 3.79771,1.6416 4.3701,1.28784 0.23667,-0.14627 0.30599,-0.094 0.16907,0.12759 -0.27976,0.45265 1.66888,0.95015 2.26897,0.57927 0.24364,-0.15057 0.31975,-0.10485 0.18591,0.11171 -0.26876,0.43486 1.37529,0.92081 1.93821,0.57291 0.2512,-0.15526 0.2879,-0.0779 0.10415,0.21937 -0.21136,0.34198 -0.0912,0.40876 0.47081,0.26178 0.415,-0.10853 0.75455,-0.0795 0.75455,0.0645 0,0.37171 2.74386,1.14796 3.15644,0.89297 0.1885,-0.1165 0.34272,-0.0282 0.34272,0.19619 0,0.2244 0.23619,0.31737 0.52487,0.20659 0.28868,-0.11078 0.52488,-0.0383 0.52488,0.1611 0,0.2104 0.31205,0.26348 0.74365,0.12649 0.54779,-0.17386 0.67162,-0.11948 0.47016,0.2065 -0.19914,0.32222 -0.0684,0.38888 0.48105,0.2452 0.415,-0.10852 0.75455,-0.0378 0.75455,0.15728 0,0.19503 0.23619,0.26396 0.52487,0.15318 0.28868,-0.11078 0.52488,-0.0321 0.52488,0.17496 0,0.207 0.23619,0.28573 0.52487,0.17495 0.28868,-0.11077 0.52488,-0.0383 0.52488,0.16111 0,0.21039 0.31205,0.26347 0.74365,0.12648 0.54779,-0.17386 0.67162,-0.11947 0.47015,0.2065 -0.19914,0.32222 -0.0684,0.38888 0.48106,0.24521 0.415,-0.10853 0.75455,-0.0378 0.75455,0.15727 0,0.19503 0.23619,0.26396 0.52487,0.15318 0.28868,-0.11077 0.52487,-0.0321 0.52487,0.17496 0,0.20701 0.2362,0.28574 0.52488,0.17496 0.28868,-0.11078 0.52487,-0.0383 0.52487,0.1611 0,0.2104 0.31205,0.26347 0.74365,0.12649 0.5478,-0.17386 0.67162,-0.11948 0.47016,0.2065 -0.19914,0.32221 -0.0684,0.38888 0.48106,0.2452 0.415,-0.10852 0.75454,-0.0377 0.75454,0.15728 0,0.19502 0.2362,0.26396 0.52488,0.15318 0.28868,-0.11078 0.52487,-0.0321 0.52487,0.17495 0,0.20701 0.2362,0.28574 0.52488,0.17496 0.28868,-0.11077 0.52487,-0.0383 0.52487,0.1611 0,0.20328 0.30741,0.26495 0.69983,0.1404 0.42865,-0.13605 0.69983,-0.0629 0.69983,0.18882 0,0.22601 0.2362,0.32029 0.52488,0.20951 0.28868,-0.11077 0.52487,-0.0321 0.52487,0.17496 0,0.20701 0.2362,0.28574 0.52488,0.17496 0.28868,-0.11078 0.52487,-0.0321 0.52487,0.17496 0,0.20701 0.23619,0.28574 0.52487,0.17496 0.28869,-0.11078 0.52488,-0.0383 0.52488,0.1611 0,0.20327 0.30741,0.26494 0.69983,0.14039 0.42864,-0.13604 0.69983,-0.0629 0.69983,0.18882 0,0.22601 0.2362,0.3203 0.52488,0.20952 0.28868,-0.11078 0.52487,-0.0321 0.52487,0.17496 0,0.207 0.23619,0.28573 0.52487,0.17495 0.28868,-0.11077 0.52488,-0.032 0.52488,0.17496 0,0.20701 0.23619,0.28574 0.52487,0.17496 0.28868,-0.11078 0.52488,-0.0383 0.52488,0.1611 0,0.20328 0.3074,0.26495 0.69983,0.1404 0.39242,-0.12455 0.69983,-0.0629 0.69983,0.1404 0,0.19938 0.23619,0.27187 0.52487,0.1611 0.28893,-0.11087 0.52488,-0.0105 0.52488,0.22337 0,0.23383 0.23595,0.33425 0.52487,0.22338 0.28868,-0.11078 0.52488,-0.0321 0.52488,0.17496 0,0.207 0.23619,0.28573 0.52487,0.17495 0.28868,-0.11077 0.52487,-0.0383 0.52487,0.16111 0,0.20327 0.30741,0.26494 0.69984,0.14039 0.42864,-0.13604 0.69983,-0.0629 0.69983,0.18882 0,0.22601 0.23619,0.3203 0.52487,0.20952 0.28868,-0.11078 0.52488,-0.0321 0.52488,0.17495 0,0.20701 0.23619,0.28574 0.52487,0.17496 0.28868,-0.11077 0.52487,-0.032 0.52487,0.17496 0,0.20701 0.2362,0.28574 0.52488,0.17496 0.28868,-0.11078 0.52487,-0.0383 0.52487,0.1611 0,0.20328 0.30741,0.26495 0.69983,0.1404 0.42865,-0.13605 0.69984,-0.0629 0.69984,0.18881 0,0.22602 0.23619,0.3203 0.52487,0.20952 0.28868,-0.11078 0.52487,-0.0321 0.52487,0.17496 0,0.20701 0.2362,0.28574 0.52488,0.17496 0.28868,-0.11078 0.52487,-0.0321 0.52487,0.17495 0,0.20701 0.23115,0.28768 0.51367,0.17926 0.28252,-0.10841 0.60248,-0.0534 0.71104,0.12224 0.10855,0.17565 0.42852,0.23065 0.71104,0.12224 0.28251,-0.10841 0.51366,-0.006 0.51366,0.22768 0,0.23383 0.23596,0.33425 0.52488,0.22337 0.28868,-0.11077 0.52487,-0.032 0.52487,0.17496 0,0.20701 0.23619,0.28574 0.52488,0.17496 0.28868,-0.11078 0.52487,-0.032 0.52487,0.17496 0,0.20701 0.23619,0.28574 0.52487,0.17496 0.28868,-0.11078 0.52488,-0.0321 0.52488,0.17495 0,0.20701 0.23619,0.28574 0.52487,0.17496 0.28868,-0.11077 0.52488,-0.0383 0.52488,0.1611 0,0.20328 0.3074,0.26495 0.69983,0.1404 0.42864,-0.13605 0.69983,-0.0629 0.69983,0.18882 0,0.22601 0.23619,0.32029 0.52487,0.20951 0.28868,-0.11077 0.52488,-0.0321 0.52488,0.17496 0,0.20701 0.23619,0.28574 0.52487,0.17496 0.28868,-0.11078 0.52488,-0.0321 0.52488,0.17496 0,0.20701 0.23619,0.28574 0.52487,0.17496 0.28868,-0.11078 0.52487,-0.0383 0.52487,0.1611 0,0.20327 0.30741,0.26494 0.69983,0.14039 0.42865,-0.13604 0.69984,-0.0629 0.69984,0.18882 0,0.22601 0.23619,0.3203 0.52487,0.20952 0.28868,-0.11078 0.52487,-0.032 0.52487,0.17496 0,0.207 0.2362,0.28573 0.52488,0.17495 0.28868,-0.11077 0.52487,-0.0321 0.52487,0.17496 0,0.20701 0.2362,0.28574 0.52488,0.17496 0.28868,-0.11078 0.52487,-0.0321 0.52487,0.17496 0,0.20701 0.23115,0.28767 0.51367,0.17926 0.28252,-0.10841 0.61337,-0.0358 0.73523,0.16137 0.12185,0.19717 0.44182,0.27397 0.71103,0.17066 0.26922,-0.10331 0.48948,-0.0185 0.48948,0.18854 0,0.20701 0.2362,0.28574 0.52488,0.17496 0.28868,-0.11078 0.52487,-0.0321 0.52487,0.17496 0,0.207 0.23115,0.28767 0.51367,0.17925 0.28252,-0.10841 0.60248,-0.0534 0.71104,0.12224 0.10855,0.17565 0.42852,0.23065 0.71104,0.12224 0.28251,-0.10841 0.51366,-0.0277 0.51366,0.17926 0,0.20701 0.2362,0.28574 0.52488,0.17496 0.28892,-0.11087 0.52487,-0.0105 0.52487,0.22338 0,0.23383 0.23595,0.33424 0.52487,0.22337 0.28869,-0.11077 0.52488,-0.0321 0.52488,0.17496 0,0.20701 0.23115,0.28767 0.51366,0.17926 0.28252,-0.10841 0.60249,-0.0534 0.71104,0.12224 0.10856,0.17564 0.42853,0.23065 0.71104,0.12224 0.28252,-0.10842 0.51367,-0.0278 0.51367,0.17926 0,0.207 0.23619,0.28573 0.52487,0.17495 0.28893,-0.11087 0.52488,-0.0105 0.52488,0.22338 0,0.23383 0.23595,0.33425 0.52487,0.22338 0.28868,-0.11078 0.52488,-0.0321 0.52488,0.17495 0,0.20701 0.23619,0.28574 0.52487,0.17496 0.28868,-0.11077 0.52487,-0.032 0.52487,0.17496 0,0.20701 0.23116,0.28767 0.51367,0.17926 0.28252,-0.10841 0.60249,-0.0534 0.71104,0.12224 0.10855,0.17564 0.42852,0.23065 0.71104,0.12224 0.28252,-0.10842 0.51367,-0.006 0.51367,0.22767 0,0.23384 0.23595,0.33425 0.52487,0.22338 0.28868,-0.11078 0.52487,-0.0321 0.52487,0.17496 0,0.207 0.2362,0.28574 0.52488,0.17496 0.28868,-0.11078 0.52487,-0.0321 0.52487,0.17495 0,0.20701 0.23115,0.28768 0.51367,0.17926 0.28252,-0.10841 0.60248,-0.0534 0.71104,0.12224 0.10855,0.17565 0.42852,0.23065 0.71104,0.12224 0.28251,-0.10841 0.51366,-0.006 0.51366,0.22768 0,0.23383 0.23596,0.33424 0.52488,0.22337 0.28868,-0.11077 0.52487,-0.032 0.52487,0.17496 0,0.20701 0.2362,0.28574 0.52488,0.17496 0.28868,-0.11078 0.52487,-0.032 0.52487,0.17496 0,0.207 0.23115,0.28767 0.51367,0.17926 0.28251,-0.10841 0.60832,-0.044 0.72401,0.14323 0.11569,0.18719 0.34604,0.25647 0.5119,0.15396 0.16586,-0.1025 0.39621,-0.0332 0.5119,0.15397 0.11569,0.18719 0.44149,0.25164 0.72401,0.14323 0.28252,-0.10841 0.51367,-0.006 0.51367,0.22768 0,0.23383 0.23595,0.33424 0.52487,0.22337 0.28868,-0.11077 0.52488,-0.0321 0.52488,0.17496 0,0.20701 0.23115,0.28767 0.51366,0.17926 0.28252,-0.10841 0.60249,-0.0534 0.71104,0.12224 0.10856,0.17564 0.42852,0.23065 0.71104,0.12224 0.28252,-0.10841 0.51367,-0.0278 0.51367,0.17926 0,0.207 0.23619,0.28573 0.52487,0.17496 0.28893,-0.11087 0.52488,-0.0105 0.52488,0.22337 0,0.23383 0.23595,0.33425 0.52487,0.22338 0.28868,-0.11078 0.52488,-0.032 0.52488,0.17496 0,0.207 0.23115,0.28767 0.51366,0.17925 0.28252,-0.10841 0.60249,-0.0534 0.71104,0.12224 0.10856,0.17565 0.42852,0.23065 0.71104,0.12224 0.28252,-0.10841 0.51367,-0.0277 0.51367,0.17926 0,0.20701 0.23619,0.28574 0.52487,0.17496 0.28892,-0.11087 0.52488,-0.0105 0.52488,0.22338 0,0.23383 0.23595,0.33424 0.52487,0.22337 0.28868,-0.11077 0.52487,-0.0321 0.52487,0.17496 0,0.20701 0.2362,0.28574 0.52488,0.17496 0.28868,-0.11078 0.52487,-0.0321 0.52487,0.17496 0,0.207 0.23115,0.28767 0.51367,0.17925 0.28252,-0.10841 0.60248,-0.0534 0.71104,0.12224 0.10855,0.17565 0.42852,0.23065 0.71104,0.12224 0.28251,-0.10841 0.51366,-0.006 0.51366,0.22768 0,0.23383 0.23595,0.33425 0.52488,0.22338 0.28868,-0.11078 0.52487,-0.0321 0.52487,0.17495 0,0.20701 0.23619,0.28574 0.52487,0.17496 0.28869,-0.11077 0.52488,-0.032 0.52488,0.17496 0,0.20701 0.23115,0.28767 0.51366,0.17926 0.28252,-0.10841 0.60249,-0.0534 0.71104,0.12224 0.10856,0.17564 0.42853,0.23065 0.71104,0.12224 0.28252,-0.10842 0.51367,-0.006 0.51367,0.22767 0,0.23384 0.23595,0.33425 0.52487,0.22338 0.28869,-0.11078 0.52488,-0.0321 0.52488,0.17496 0,0.207 0.23619,0.28574 0.52487,0.17496 0.28868,-0.11078 0.52488,-0.0321 0.52488,0.17495 0,0.20701 0.23115,0.28768 0.51366,0.17926 0.28252,-0.10841 0.60249,-0.0534 0.71104,0.12224 0.10856,0.17565 0.42852,0.23065 0.71104,0.12224 0.28252,-0.10841 0.51367,-0.0277 0.51367,0.17926 0,0.207 0.23619,0.28573 0.52487,0.17496 0.28892,-0.11087 0.52488,-0.0105 0.52488,0.22337 0,0.23384 0.23595,0.33425 0.52487,0.22338 0.28868,-0.11078 0.52487,-0.032 0.52487,0.17496 0,0.207 0.23116,0.28767 0.51367,0.17926 0.28252,-0.10841 0.60249,-0.0534 0.71104,0.12224 0.10855,0.17564 0.42852,0.23065 0.71104,0.12224 0.28252,-0.10842 0.51367,-0.0278 0.51367,0.17925 0,0.20701 0.23619,0.28574 0.52487,0.17496 0.28892,-0.11087 0.52487,-0.0105 0.52487,0.22338 0,0.23383 0.23596,0.33424 0.52488,0.22337 0.28868,-0.11077 0.52487,-0.032 0.52487,0.17496 0,0.20701 0.23115,0.28767 0.51367,0.17926 0.28252,-0.10841 0.60832,-0.044 0.72401,0.14323 0.11569,0.18719 0.34605,0.25647 0.5119,0.15397 0.16586,-0.10251 0.39622,-0.0332 0.5119,0.15396 0.11569,0.1872 0.4415,0.25165 0.72402,0.14324 0.28251,-0.10842 0.51366,-0.006 0.51366,0.22767 0,0.23383 0.23595,0.33425 0.52488,0.22338 0.28868,-0.11078 0.52487,-0.032 0.52487,0.17496 0,0.207 0.23115,0.28767 0.51367,0.17925 0.28251,-0.10841 0.60832,-0.044 0.72401,0.14323 0.11569,0.18719 0.34604,0.25648 0.5119,0.15397 0.16586,-0.1025 0.39621,-0.0332 0.5119,0.15397 0.11569,0.18719 0.44149,0.25164 0.72401,0.14323 0.28252,-0.10842 0.51367,-0.006 0.51367,0.22768 0,0.23383 0.23595,0.33424 0.52487,0.22337 0.28868,-0.11078 0.52488,-0.032 0.52488,0.17496 0,0.20701 0.23619,0.28574 0.52487,0.17496 0.28868,-0.11078 0.52488,-0.032 0.52488,0.17496 0,0.207 0.23115,0.28767 0.51366,0.17925 0.28252,-0.10841 0.60833,-0.044 0.72401,0.14323 0.11569,0.18719 0.34605,0.25648 0.51191,0.15397 0.16585,-0.1025 0.39621,-0.0332 0.5119,0.15397 0.11568,0.18719 0.44149,0.25164 0.72401,0.14323 0.28251,-0.10842 0.51367,-0.006 0.51367,0.22768 0,0.23383 0.23595,0.33424 0.52487,0.22337 0.28868,-0.11078 0.52487,-0.0321 0.52487,0.17496 0,0.20701 0.23115,0.28767 0.51367,0.17926 0.28252,-0.10841 0.60248,-0.0534 0.71104,0.12224 0.10855,0.17564 0.42852,0.23065 0.71104,0.12224 0.28251,-0.10842 0.51367,-0.0278 0.51367,0.17926 0,0.207 0.23619,0.28573 0.52487,0.17495 0.28892,-0.11087 0.52487,-0.0105 0.52487,0.22338 0,0.23383 0.23596,0.33425 0.52488,0.22338 0.28868,-0.11078 0.52487,-0.0321 0.52487,0.17495 0,0.20701 0.23115,0.28768 0.51367,0.17926 0.28252,-0.10841 0.60248,-0.0534 0.71104,0.12224 0.10855,0.17565 0.42852,0.23065 0.71104,0.12224 0.28251,-0.10841 0.51366,-0.0278 0.51366,0.17926 0,0.207 0.2362,0.28573 0.52488,0.17496 0.28892,-0.11087 0.52487,-0.0105 0.52487,0.22337 0,0.23383 0.23595,0.33425 0.52488,0.22338 0.28868,-0.11078 0.52487,-0.0321 0.52487,0.17496 0,0.207 0.23115,0.28767 0.51367,0.17926 0.28251,-0.10842 0.60832,-0.044 0.72401,0.14323 0.11569,0.18718 0.34604,0.25647 0.5119,0.15396 0.16586,-0.1025 0.39621,-0.0332 0.5119,0.15397 0.11569,0.18719 0.44149,0.25164 0.72401,0.14323 0.28252,-0.10841 0.51367,-0.006 0.51367,0.22768 0,0.23383 0.23595,0.33424 0.52487,0.22337 0.28868,-0.11077 0.52488,-0.032 0.52488,0.17496 0,0.20701 0.23115,0.28767 0.51366,0.17926 0.28252,-0.10841 0.60833,-0.044 0.72401,0.14323 0.11569,0.18719 0.34605,0.25647 0.51191,0.15397 0.16585,-0.10251 0.39621,-0.0332 0.5119,0.15396 0.11569,0.18719 0.44149,0.25165 0.72401,0.14323 0.28252,-0.10841 0.51367,-0.006 0.51367,0.22768 0,0.23383 0.23595,0.33425 0.52487,0.22338 0.28868,-0.11078 0.52487,-0.0321 0.52487,0.17495 0,0.20701 0.2362,0.28574 0.52488,0.17496 0.28868,-0.11077 0.52487,-0.0321 0.52487,0.17496 0,0.20701 0.23115,0.28767 0.51367,0.17926 0.28252,-0.10841 0.60832,-0.044 0.72401,0.14323 0.11569,0.18719 0.34605,0.25647 0.5119,0.15397 0.16586,-0.10251 0.39622,-0.0332 0.51191,0.15396 0.11568,0.18719 0.44149,0.25165 0.72401,0.14323 0.28251,-0.10841 0.51366,-0.006 0.51366,0.22768 0,0.23383 0.23595,0.33425 0.52488,0.22338 0.28868,-0.11078 0.52487,-0.0321 0.52487,0.17495 0,0.20701 0.23115,0.28768 0.51367,0.17926 0.28252,-0.10841 0.60248,-0.0534 0.71104,0.12224 0.10855,0.17565 0.42852,0.23065 0.71104,0.12224 0.28251,-0.10841 0.51366,-0.0277 0.51366,0.17926 0,0.207 0.2362,0.28574 0.52488,0.17496 0.28892,-0.11087 0.52487,-0.0105 0.52487,0.22337 0,0.23384 0.23595,0.33425 0.52487,0.22338 0.28868,-0.11078 0.52488,-0.0321 0.52488,0.17496 0,0.20701 0.23115,0.28767 0.51366,0.17926 0.28252,-0.10841 0.60833,-0.044 0.72402,0.14323 0.11568,0.18719 0.34604,0.25647 0.5119,0.15396 0.16585,-0.1025 0.39621,-0.0332 0.5119,0.15397 0.11569,0.18719 0.44149,0.25164 0.72401,0.14323 0.28252,-0.10841 0.51367,-0.006 0.51367,0.22768 0,0.23383 0.23595,0.33425 0.52487,0.22337 0.28868,-0.11077 0.52488,-0.0321 0.52488,0.17496 0,0.20701 0.23115,0.28768 0.51367,0.17926 0.28252,-0.10841 0.60833,-0.044 0.72401,0.14323 0.11569,0.18719 0.34604,0.25647 0.5119,0.15397 0.16586,-0.10251 0.39621,-0.0332 0.51189,0.15397 0.11568,0.18719 0.44149,0.25164 0.72401,0.14323 0.28252,-0.10842 0.51368,-0.006 0.51368,0.22767 0,0.23383 0.23594,0.33425 0.52487,0.22338 0.28868,-0.11078 0.52487,-0.0321 0.52487,0.17496 0,0.207 0.23116,0.28767 0.51368,0.17926 0.28252,-0.10842 0.60833,-0.044 0.72401,0.14323 0.11568,0.18718 0.34603,0.25647 0.51189,0.15396 0.16586,-0.1025 0.39621,-0.0332 0.5119,0.15397 0.11568,0.18719 0.44148,0.25164 0.72401,0.14323 0.28252,-0.10841 0.51367,-0.0278 0.51367,0.17926 0,0.207 0.2362,0.28573 0.52488,0.17496 0.28892,-0.11087 0.52487,-0.0105 0.52487,0.22337 0,0.23364 0.23116,0.33609 0.51368,0.22768 0.28252,-0.10841 0.60833,-0.044 0.72401,0.14323 0.11568,0.18719 0.34603,0.25647 0.51189,0.15397 0.16586,-0.10251 0.39621,-0.0332 0.51189,0.15396 0.11569,0.18719 0.44149,0.25165 0.72401,0.14323 0.28253,-0.10841 0.51368,-0.006 0.51368,0.22768 0,0.23383 0.23595,0.33425 0.52488,0.22338 0.28868,-0.11078 0.52487,-0.0321 0.52487,0.17495 0,0.20701 0.23619,0.28574 0.52487,0.17496 0.28868,-0.11077 0.52488,-0.0321 0.52488,0.17496 0,0.20701 0.23619,0.28574 0.52487,0.17496 0.28868,-0.11078 0.52488,-0.0305 0.52488,0.17833 0,0.20886 0.31492,0.29739 0.69983,0.19674 0.3849,-0.10066 0.69983,-0.0235 0.69983,0.17158 0,0.19503 0.22318,0.26896 0.4959,0.16429 0.27276,-0.10466 0.5648,-0.004 0.64899,0.225 0.0842,0.22842 -0.13734,3.01343 -0.49223,6.18892 -0.62183,5.5636 -0.68184,5.80543 -1.64999,6.6484 -0.55259,0.48114 -2.02822,1.7802 -3.2792,2.88681 l -2.27453,2.01202 -176.58128,0 -176.58129,0 0,-11.64074 z"
         style="opacity:1;fill:#c4b5b1;fill-opacity:1;stroke:#a59a7a;stroke-opacity:1" />
      <path
         inkscape:connector-curvature="0"
         id="path4776"
         d="m 447.76371,368.7064 c -0.11306,-0.35354 -0.17478,-0.67359 -0.13715,-0.71122 0.0711,-0.0711 1.02759,0.97739 1.03408,1.13365 0.002,0.0489 -0.0742,0.059 -0.16937,0.0225 -0.0952,-0.0365 -0.20981,-0.007 -0.25473,0.0657 -0.15532,0.25132 -0.26811,0.12951 -0.47283,-0.51067 z"
         style="opacity:1;fill:#c4b5b1;fill-opacity:1;stroke:#a59a7a;stroke-width:0.12371399;stroke-opacity:1" />
      <path
         inkscape:connector-curvature="0"
         id="path4778"
         d="m 447.48905,367.86465 c 0.042,-0.068 0.10101,-0.12372 0.13101,-0.12372 0.03,0 0.0546,0.0557 0.0546,0.12372 0,0.068 -0.059,0.12371 -0.13102,0.12371 -0.0721,0 -0.0966,-0.0557 -0.0546,-0.12371 z"
         style="opacity:1;fill:#c4b5b1;fill-opacity:1;stroke:#a59a7a;stroke-width:0.12371399;stroke-opacity:1" />
      <path
         inkscape:connector-curvature="0"
         id="path4780"
         d="m 448.34996,369.95955 c -0.0448,-0.0726 -0.0518,-0.16165 -0.0155,-0.19795 0.0886,-0.0886 0.3299,0.0675 0.3299,0.21349 0,0.1581 -0.21358,0.14755 -0.31437,-0.0155 z"
         style="opacity:1;fill:#c4b5b1;fill-opacity:1;stroke:#a59a7a;stroke-width:0.12371399;stroke-opacity:1" />
      <path
         inkscape:connector-curvature="0"
         id="path4792"
         d="m 484.42854,384.43893 -0.11859,0.68871 -0.0712,0.0223"
         style="fill:none;fill-rule:evenodd;stroke:#a59a7a;stroke-width:1.04965472px;stroke-linecap:butt;stroke-linejoin:miter;stroke-opacity:1" />
      <path
         inkscape:connector-curvature="0"
         id="path4794"
         d="m 447.36758,367.17124 7.17328,20.29513 0,0 0,0 0,0"
         style="fill:none;fill-rule:evenodd;stroke:#a59a7a;stroke-width:1px;stroke-linecap:butt;stroke-linejoin:miter;stroke-opacity:1" />
      <path
         inkscape:connector-curvature="0"
         id="path4796"
         d="m 454.19095,387.64133 63.33479,75.58185 0,0 0,0.69983 0,0 0,0"
         style="fill:none;fill-rule:evenodd;stroke:#a59a7a;stroke-width:1px;stroke-linecap:butt;stroke-linejoin:miter;stroke-opacity:1" />
      <path
         inkscape:connector-curvature="0"
         id="path4798"
         d="M 517.74302,463.78732 711.47911,522.9226"
         style="fill:none;fill-rule:evenodd;stroke:#a59a7a;stroke-width:1px;stroke-linecap:butt;stroke-linejoin:miter;stroke-opacity:1" />
      <path
         inkscape:connector-curvature="0"
         id="path4800"
         d="m 710.4894,522.55146 1.732,0.49485 0,0 -0.49486,0"
         style="fill:none;fill-rule:evenodd;stroke:#a59a7a;stroke-width:1px;stroke-linecap:butt;stroke-linejoin:miter;stroke-opacity:1" />
      <path
         id="path4802"
         d="m 350.59961,540.70703 0,39.7168 0,39.71484 176.35937,0 176.35743,0 0,-39.53711 0,-39.53906 -176.35743,-0.17773 -176.35937,-0.17774 z"
         style="opacity:1;fill:#c4b5b1;fill-opacity:1;stroke:#a59a7a;stroke-width:0.69983196;stroke-opacity:1"
         inkscape:connector-curvature="0" />
      <path
         inkscape:connector-curvature="0"
         id="path4807"
         d="m 351.66822,540.55305 349.56717,0.70139 0,0.70139 0,0 0,0"
         style="fill:#c4b5b1;fill-opacity:1;fill-rule:evenodd;stroke:#c4b5b1;stroke-width:0.9946661px;stroke-linecap:butt;stroke-linejoin:miter;stroke-opacity:1" />
      <path
         inkscape:connector-curvature="0"
         id="path4811"
         d="m 352.01548,535.65579 0,10.84739 349.91598,-3.14924 0.69983,-5.24874 z"
         style="fill:#c4b5b1;fill-opacity:1;fill-rule:evenodd;stroke:#c4b5b1;stroke-width:1px;stroke-linecap:butt;stroke-linejoin:miter;stroke-opacity:1" />
      <path
         inkscape:connector-curvature="0"
         id="path4813"
         d="m 351.59514,539.12913 0,4.08256"
         style="fill:none;fill-rule:evenodd;stroke:#c4b5b1;stroke-width:1px;stroke-linecap:butt;stroke-linejoin:miter;stroke-opacity:1" />
      <path
         inkscape:connector-curvature="0"
         id="path4815"
         d="m 342.50254,486.86878 -2.58227,-2.47764 -3.40346,-1.47189 c -2.12864,-0.92055 -3.398,-1.54204 -3.38885,-1.65922 0.0177,-0.22656 43.36136,-61.24765 43.50464,-61.24765 0.10397,0 0.0516,24.82289 -0.0528,25.12841 -0.0322,0.0941 -0.28493,0.17092 -0.56176,0.17092 l -0.50329,0 0,0.69128 c 0,0.5839 -0.0921,0.82286 -0.59275,1.53845 -0.32602,0.46598 -0.87015,1.13583 -1.2092,1.48862 -0.33903,0.35276 -0.79527,0.90659 -1.0138,1.23077 -0.21854,0.32416 -0.63647,0.81401 -0.92869,1.08856 -0.29223,0.27453 -0.53135,0.62472 -0.53135,0.77824 0,0.1535 -0.0627,0.31629 -0.13933,0.36172 -0.46604,0.27637 -15.13512,20.6297 -21.73406,30.15596 -2.79898,4.04063 -3.7737,5.55403 -3.86842,6.00613 -0.0696,0.33241 -0.19092,0.62478 -0.26951,0.6497 -0.0785,0.025 -1.3049,-1.06962 -2.72513,-2.43236 z"
         style="opacity:1;fill:#c4b5b1;fill-opacity:1;stroke:#c4b5b1;stroke-width:0.13960961;stroke-opacity:1" />
      <path
         inkscape:connector-curvature="0"
         id="path4819"
         d="m 374.48222,357.39329 -0.49485,-29.56764 57.15586,-18.06224 0,0 0,0"
         style="fill:none;fill-rule:evenodd;stroke:#c4b5b1;stroke-width:1px;stroke-linecap:butt;stroke-linejoin:miter;stroke-opacity:1" />
      <path
         inkscape:connector-curvature="0"
         id="path4821"
         d="m 407.63757,317.18625 23.25823,-8.16512"
         style="fill:none;fill-rule:evenodd;stroke:#c4b5b1;stroke-width:1px;stroke-linecap:butt;stroke-linejoin:miter;stroke-opacity:1" />
      <path
         inkscape:connector-curvature="0"
         id="path4823"
         d="m 432.00923,294.54659 35.62962,17.31996"
         style="fill:none;fill-rule:evenodd;stroke:#fbfafe;stroke-width:1px;stroke-linecap:butt;stroke-linejoin:miter;stroke-opacity:1" />
      <path
         inkscape:connector-curvature="0"
         id="path4825"
         d="m 417.03983,234.54531 3.95885,-4.45371"
         style="fill:none;fill-rule:evenodd;stroke:#c4b5b1;stroke-width:1px;stroke-linecap:butt;stroke-linejoin:miter;stroke-opacity:1" />
      <path
         inkscape:connector-curvature="0"
         id="path4827"
         d="m 429.28752,309.26855 1.97942,-0.49485 0,0"
         style="fill:none;fill-rule:evenodd;stroke:#c4b5b1;stroke-width:1px;stroke-linecap:butt;stroke-linejoin:miter;stroke-opacity:1" />
      <path
         inkscape:connector-curvature="0"
         id="path4829"
         d="m 343.6175,485.6178 17.49579,30.44269 75.58186,1.04975 -0.34992,-206.10051 -5.59865,-0.69984 -44.78925,133.66791 -25.54387,10.49748 z"
         style="fill:#c4b5b1;fill-opacity:1;fill-rule:evenodd;stroke:#c4b5b1;stroke-width:1px;stroke-linecap:butt;stroke-linejoin:miter;stroke-opacity:1" />
      <path
         inkscape:connector-curvature="0"
         id="path4831"
         d="m 442.2938,320.80737 41.64001,14.34656 0,31.49244 227.09547,143.81547 -0.69983,17.84571 -258.58792,-58.08605 z"
         style="fill:#c4b5b1;fill-opacity:1;fill-rule:evenodd;stroke:#c4b5b1;stroke-width:1px;stroke-linecap:butt;stroke-linejoin:miter;stroke-opacity:1" />
      <path
         inkscape:connector-curvature="0"
         id="path4833"
         d="m 485.33347,367.69611 0.17496,-3.67412 53.7121,21.51984"
         style="fill:none;fill-rule:evenodd;stroke:#c4b5b1;stroke-width:1px;stroke-linecap:butt;stroke-linejoin:miter;stroke-opacity:1" />
      <path
         inkscape:connector-curvature="0"
         id="path4835"
         d="m 486.38322,369.09578 -0.17496,-5.07378 26.41866,10.84739 0,0"
         style="fill:none;fill-rule:evenodd;stroke:#c4b5b1;stroke-width:1px;stroke-linecap:butt;stroke-linejoin:miter;stroke-opacity:1" />
      <path
         inkscape:connector-curvature="0"
         id="path4837"
         d="m 431.79632,307.86048 -58.78588,19.24538 0.17496,98.32639 -39.71547,55.63664 7.69815,3.67412 5.07379,5.94857 -0.34992,1.57462"
         style="fill:none;fill-rule:evenodd;stroke:#a59a7a;stroke-width:1px;stroke-linecap:butt;stroke-linejoin:miter;stroke-opacity:1" />
      <path
         inkscape:connector-curvature="0"
         id="path4839"
         d="m 391.20607,246.27527 25.71882,-11.89714"
         style="fill:none;fill-rule:evenodd;stroke:#c4b5b1;stroke-width:1px;stroke-linecap:butt;stroke-linejoin:miter;stroke-opacity:1" />
      <path
         inkscape:connector-curvature="0"
         id="path4841"
         d="m 433.86494,157.22407 4.14442,-19.05195"
         style="fill:none;fill-rule:evenodd;stroke:#c4b5b1;stroke-width:1px;stroke-linecap:butt;stroke-linejoin:miter;stroke-opacity:1" />
      <path
         inkscape:connector-curvature="0"
         id="path4845"
         d="m 434.94557,138.15123 3.49916,-9.44773 2.09949,6.99832 0,5.24874 z"
         style="fill:#c4b5b1;fill-opacity:1;fill-rule:evenodd;stroke:#c4b5b1;stroke-width:1px;stroke-linecap:butt;stroke-linejoin:miter;stroke-opacity:1" />
      <path
         inkscape:connector-curvature="0"
         id="path4847"
         d="m 438.44473,128.7035 3.14924,0"
         style="fill:none;fill-rule:evenodd;stroke:#c4b5b1;stroke-width:1px;stroke-linecap:butt;stroke-linejoin:miter;stroke-opacity:1" />
      <path
         inkscape:connector-curvature="0"
         id="path4849"
         d="m 350.79077,517.46016 0.17496,102.35042 351.84052,-0.17496 0.34992,-79.08101 6.29849,-5.07378 1.57462,-13.29681 0.52487,-6.12353 0,0"
         style="fill:none;fill-rule:evenodd;stroke:#a59a7a;stroke-width:1px;stroke-linecap:butt;stroke-linejoin:miter;stroke-opacity:1" />
      <path
         inkscape:connector-curvature="0"
         id="path4851"
         d="m 711.45525,523.03308 0.54773,-7.47173"
         style="fill:none;fill-rule:evenodd;stroke:#a59a7a;stroke-width:1.26161909px;stroke-linecap:butt;stroke-linejoin:miter;stroke-opacity:1" />
      <path
         inkscape:connector-curvature="0"
         id="path4853"
         d="m 484.00309,332.13745 c -9.50974,-4.80552 -49.68335,-23.88814 -50.29672,-23.89114 -0.24261,-10e-4 -0.84598,-0.21345 -1.34084,-0.47168 -0.83102,-0.43367 -3.12958,0.26091 -30.09278,9.09349 -16.05616,5.25967 -29.4364,9.56594 -29.73385,9.5695 -0.77577,0.009 -10.96687,-4.42382 -11.10205,-4.82937 -0.0621,-0.18637 0.95749,-0.74424 2.2658,-1.2397 1.30831,-0.49547 6.31531,-2.38254 11.12665,-4.19349 l 8.7479,-3.29265 0.17496,-1.44394 c 0.17136,-1.41428 0.24681,-1.48525 3.67412,-3.45625 l 3.49916,-2.01231 1.97127,-18.5435 c 1.0842,-10.19892 2.05341,-19.33575 2.1538,-20.30407 l 0.18253,-1.76058 -2.45237,-1.56362 -2.45237,-1.56363 0.21002,-5.94857 c 0.11551,-3.27171 0.2105,-6.84904 0.21109,-7.94961 8.4e-4,-1.55915 0.10791,-1.96003 0.48487,-1.81538 0.38852,0.14909 19.60458,-8.45099 24.77085,-11.08611 1.24781,-0.63646 1.79019,-0.6399 18.54555,-0.11781 l 17.26014,0.53783 10.64718,6.01655 c 5.85595,3.3091 10.85538,6.22462 11.10983,6.47894 0.76074,0.76031 0.54318,2.00102 -1.66766,9.51021 l -2.11193,7.17328 -1.00996,22.21967 c -0.55548,12.22081 -1.06094,22.80261 -1.12325,23.51511 l -0.11329,1.29544 14.3542,6.89917 c 7.89482,3.79455 14.49048,7.01673 14.65703,7.16042 0.16654,0.14368 -1.84013,0.94378 -4.45929,1.77799 l -4.7621,1.51674 1.24076,1.55939 1.24076,1.55939 -0.80551,0.6198 c -1.11004,0.85414 -1.42278,0.79043 -5.0045,-1.01951 z"
         style="opacity:1;fill:#c4b5b1;fill-opacity:1;stroke:#a59a7a;stroke-width:0.34991598;stroke-opacity:1" />
      <path
         inkscape:connector-curvature="0"
         id="path4861"
         d="m 403.42803,352.41058 c -1.49508,-3.45795 -2.08086,-5.16528 -1.97174,-5.74692 0.0624,-0.33248 0.20164,-0.57509 0.30949,-0.53914 0.10784,0.0359 0.83607,1.57052 1.61827,3.41017 l 1.42219,3.34481 -0.51075,0.17805 c -0.49494,0.17253 -0.52179,0.1525 -0.86746,-0.64697 z"
         style="opacity:1;fill:#c4b5b1;fill-opacity:1;stroke:#a59a7a;stroke-width:0.17495799;stroke-opacity:1" />
      <path
         inkscape:connector-curvature="0"
         id="path4865"
         d="m 400.17774,362.81074 c -0.98316,-0.40993 -1.84096,-0.79873 -1.90624,-0.864 -0.0653,-0.0653 0.0637,-1.37901 0.28664,-2.9194 0.33351,-2.30452 0.47097,-2.86238 0.77587,-3.14882 0.20381,-0.19147 1.19385,-0.69242 2.2001,-1.11323 l 1.82954,-0.76512 1.00666,2.35155 c 0.55366,1.29335 1.00666,2.4461 1.00666,2.56165 0,0.2292 -3.07904,4.54631 -3.2851,4.60601 -0.0696,0.0202 -0.93098,-0.29871 -1.91413,-0.70864 z"
         style="opacity:1;fill:#c4b5b1;fill-opacity:1;stroke:#a59a7a;stroke-width:0.17495799;stroke-opacity:1" />
      <path
         inkscape:connector-curvature="0"
         id="path4867"
         d="m 405.43747,357.52145 c -0.07,-0.18548 -0.38171,-0.96708 -0.69264,-1.7369 -0.31094,-0.76981 -0.51242,-1.45283 -0.44774,-1.51782 0.26087,-0.26208 5.27325,-2.13276 5.3932,-2.0128 0.0568,0.0568 -3.46611,4.90725 -3.88939,5.355 -0.20337,0.21513 -0.25377,0.203 -0.36343,-0.0875 z"
         style="opacity:1;fill:#c4b5b1;fill-opacity:1;stroke:#a59a7a;stroke-width:0.17495799;stroke-opacity:1" />
      <path
         inkscape:connector-curvature="0"
         id="path4869"
         d="m 400.2434,353.90375 c 0.13138,-0.50519 0.33108,-1.60918 0.44379,-2.45331 0.11355,-0.85044 0.28216,-1.50905 0.37814,-1.47705 0.16074,0.0536 1.74269,3.6333 1.64417,3.7205 -0.0551,0.0488 -2.60149,1.12839 -2.66144,1.12839 -0.0239,0 0.064,-0.41334 0.19534,-0.91853 z"
         style="opacity:1;fill:#c4b5b1;fill-opacity:1;stroke:#a59a7a;stroke-width:0.17495799;stroke-opacity:1" />
      <path
         inkscape:connector-curvature="0"
         id="path4871"
         d="m 395.16808,360.26328 c -1.3328,-0.53876 -2.42043,-1.05092 -2.41697,-1.13812 0.006,-0.16206 5.42492,-2.46722 5.53216,-2.35352 0.0575,0.061 -0.58098,4.39577 -0.65488,4.44601 -0.0204,0.0139 -1.12752,-0.41561 -2.46031,-0.95437 z"
         style="opacity:1;fill:#c4b5b1;fill-opacity:1;stroke:#a59a7a;stroke-width:0.17495799;stroke-opacity:1" />
      <path
         inkscape:connector-curvature="0"
         id="path4873"
         d="m 398.20369,367.08473 c 0,-0.28021 0.11904,-1.12657 0.26454,-1.8808 0.1455,-0.75422 0.21797,-1.58782 0.16106,-1.85245 -0.0569,-0.26462 -0.0321,-0.48113 0.0552,-0.48113 0.16423,0 2.35595,0.86197 2.4709,0.97177 0.105,0.10028 -2.60849,3.7521 -2.78801,3.7521 -0.09,0 -0.1637,-0.22927 -0.1637,-0.50949 z"
         style="opacity:1;fill:#c4b5b1;fill-opacity:1;stroke:#a59a7a;stroke-width:0.17495799;stroke-opacity:1" />
      <path
         inkscape:connector-curvature="0"
         id="path4875"
         d="m 405.20201,364.2964 c -1.4112,-0.57739 -2.00606,-0.90543 -1.99206,-1.09856 0.0291,-0.40205 2.02286,-2.99257 2.17689,-2.82851 0.20001,0.21303 1.92839,4.47359 1.87453,4.62083 -0.026,0.0712 -0.95275,-0.241 -2.05936,-0.69376 z"
         style="opacity:1;fill:#c4b5b1;fill-opacity:1;stroke:#a59a7a;stroke-width:0.17495799;stroke-opacity:1" />
      <path
         inkscape:connector-curvature="0"
         id="path4877"
         d="m 382.80809,342.15225 36.74117,-2.0995 -2.09949,33.24202 -16.97093,5.07378 -11.72218,0.69983 z"
         style="fill:#c4b5b1;fill-opacity:1;fill-rule:evenodd;stroke:#c4b5b1;stroke-width:1px;stroke-linecap:butt;stroke-linejoin:miter;stroke-opacity:1" />
      <path
         inkscape:connector-curvature="0"
         id="path4879"
         d="m 390.85615,246.45023 26.59362,-11.72219 35.51647,1.22471 20.82,12.77193"
         style="fill:none;fill-rule:evenodd;stroke:#c4b5b1;stroke-width:1px;stroke-linecap:butt;stroke-linejoin:miter;stroke-opacity:1" />
      <path
         inkscape:connector-curvature="0"
         id="path4881"
         d="m 391.38103,246.80014 18.89546,-8.22302"
         style="fill:none;fill-rule:evenodd;stroke:#c4b5b1;stroke-width:1px;stroke-linecap:butt;stroke-linejoin:miter;stroke-opacity:1" />
      <path
         inkscape:connector-curvature="0"
         id="path4883"
         d="m 373.01044,326.58099 -12.24706,-4.72387 22.9195,-8.57294 0,-2.97429 7.87311,-4.37395 4.02403,-40.76521 -5.4237,-2.62437 0.69983,-16.09613 12.42202,-9.09782 -0.17496,-2.27445 34.81664,-106.54942 3.84908,0 22.04471,107.59916 4.37395,6.29849 6.29848,3.14925 -4.89882,18.89546 -2.27445,48.28841 29.91781,13.47176 -9.79764,3.3242 2.27445,3.14925 -1.74958,1.92453 -1.92454,-1.2247"
         style="fill:none;fill-rule:evenodd;stroke:#a59a7a;stroke-width:1px;stroke-linecap:butt;stroke-linejoin:miter;stroke-opacity:1" />
      <path
         inkscape:connector-curvature="0"
         id="path4885"
         d="m 373.3688,326.34108 58.14557,-18.30967 54.68158,25.23766 0,0 0,0"
         style="fill:none;fill-rule:evenodd;stroke:#c4b5b1;stroke-width:1px;stroke-linecap:butt;stroke-linejoin:miter;stroke-opacity:1" />
      <path
         inkscape:connector-curvature="0"
         id="path4887"
         d="m 373.86365,327.33079 48.49589,-15.83538"
         style="fill:none;fill-rule:evenodd;stroke:#c4b5b1;stroke-width:1px;stroke-linecap:butt;stroke-linejoin:miter;stroke-opacity:1" />
      <path
         inkscape:connector-curvature="0"
         id="path4889"
         d="m 374.11108,326.58851 57.65072,-19.05195 53.93929,25.97993"
         style="fill:none;fill-rule:evenodd;stroke:#c4b5b1;stroke-width:1px;stroke-linecap:butt;stroke-linejoin:miter;stroke-opacity:1" />
      <path
         inkscape:connector-curvature="0"
         id="path4891"
         d="m 385.49277,322.38224 49.23816,-15.58797 49.98045,26.96965"
         style="fill:none;fill-rule:evenodd;stroke:#c4b5b1;stroke-width:1px;stroke-linecap:butt;stroke-linejoin:miter;stroke-opacity:1" />
      <path
         inkscape:connector-curvature="0"
         id="path4893"
         d="m 429.78237,308.03141 53.44445,24.7428"
         style="fill:none;fill-rule:evenodd;stroke:#c4b5b1;stroke-width:1px;stroke-linecap:butt;stroke-linejoin:miter;stroke-opacity:1" />
      <path
         inkscape:connector-curvature="0"
         id="path4895"
         d="m 434.85465,308.15513 50.35159,24.74279 0,0 0,0"
         style="fill:none;fill-rule:evenodd;stroke:#c4b5b1;stroke-width:1px;stroke-linecap:butt;stroke-linejoin:miter;stroke-opacity:1" />
      <path
         inkscape:connector-curvature="0"
         id="path4899"
         d="m 485.88667,332.46492 -1.23714,2.598 0,0 0,0"
         style="fill:none;fill-rule:evenodd;stroke:#c4b5b1;stroke-width:1px;stroke-linecap:butt;stroke-linejoin:miter;stroke-opacity:1" />
      <path
         inkscape:connector-curvature="0"
         id="path4901"
         d="m 487.20695,334.07621 1.19455,-0.0679"
         style="fill:none;fill-rule:evenodd;stroke:#a59a7a;stroke-width:0.75174916px;stroke-linecap:butt;stroke-linejoin:miter;stroke-opacity:1" />
      <path
         inkscape:connector-curvature="0"
         id="path4907"
         d="m 416.42126,238.50416 22.02109,-99.71347"
         style="fill:none;fill-rule:evenodd;stroke:#c4b5b1;stroke-width:1px;stroke-linecap:butt;stroke-linejoin:miter;stroke-opacity:1" />
      <path
         inkscape:connector-curvature="0"
         id="path4909"
         d="m 408.00204,244.8756 30.7926,-113.72269 25.19395,119.32135 -29.74285,25.89378 z"
         style="fill:#c4b5b1;fill-opacity:1;fill-rule:evenodd;stroke:#c4b5b1;stroke-width:1px;stroke-linecap:butt;stroke-linejoin:miter;stroke-opacity:1" />
    </g>
  </g>
</svg>
